<?xml version="1.0" encoding="UTF-8"?>
<svg id="_레이어_2" data-name="레이어 2" xmlns="http://www.w3.org/2000/svg" viewBox="0 0 306.8 305.68">
  <defs>
    <style>
      .cls-1 {
        fill: #fff;
      }
    </style>
  </defs>
  <g id="_레이어_1-2" data-name="레이어 1">
    <g>
      <path class="cls-1" d="M305.77,154.09l.06.94.97.25v2.98s-.99.2-.99.2l-.07,1.97-.93.04-.04,1.99h-1.34s-.04,1.31-.04,1.31c-1.49-.22-.42,1.3-1.91,1.07l-.1,1.95c-1.25-.1-1.66,2.17-2.91,2.07l-.05,1.31-1.31.05c-.73,1.45-2.55,3.27-4,4l-.05,1.31-1.31.05c-.73,1.45-2.55,3.26-4,4l-.1,1.27-.89.1-.1.89-1.27.1c-.36,1.08-1.92,2.63-3,3l-.1,1.27-.89.1-.1.89-1.27.1c-.36,1.08-1.92,2.63-3,3l-.1,1.27c-.7-.02-2.02,1.3-1.99,1.99l-1.27.1c-.36,1.08-1.92,2.63-3,3l-.1,1.27-.89.1-.1.89-2.28.1c.21,1.29-.69.77-.95,1.04-.38.37-1.09,2.21-2.05,1.95l-.04,1.31-1.32.03-.2,1-1.8.03c-.35,1.06-1.93,2.64-3,2.99l-.05,1.31-2.31.05c.21,1.29-.69.77-.95,1.04-.09.09-1.08,1.75-1.17,1.84-.26.26-1.16-.26-.95,1.04l-2.31.05-.05,1.31c-1.45.73-3.27,2.55-4,4l-1.31.04v1.34s-1.97.05-1.97.05c.1,1.25-2.16,1.65-2.07,2.91l-1.27.1-.1.89-.89.1-.1,1.27c-1.45.74-3.26,2.55-4,4l-1.27.1-.1.89-.89.1-.09,1.27-.89.1-.1.89-1.8.03-.2.99-1.28.08c.03.7-1.3,2.02-1.99,1.99l-.1,1.27c-1.08.36-2.63,1.92-3,3l-1.27.1-.1.89-.89.1-.1,1.27c-1.08.36-2.63,1.92-3,3l-1.27.1-.1.89-.89.1-.1,1.27c-1.08.36-2.63,1.92-3,3l-1.27.1-.1.89-.89.1-.1,1.27c-1.45.74-3.26,2.55-4,4l-1.31.05-.05,2.31c-1.29-.21-.77.69-1.04.95-.76.77-2.81,1.73-2.96,3.05l-1.31.05-.05,1.31c-1.3-.2-.78.69-1.04.95-.09.09-1.75,1.08-1.84,1.17-.26.26.26,1.16-1.04.95l-.1,2.28-.89.1-.1.89-1.27.1c-.36,1.08-1.92,2.63-3,3l-.1,1.27-.89.1-.1.89-1.31.04.03,1.83c-1.55.11-.53,1.37-1.98,1.22l-.1,1.27c-1.08.36-2.63,1.92-3,3l-1.27.1c.02.7-1.3,2.02-1.99,1.99l-.1,1.27c-.69-.02-2.02,1.3-1.99,1.99l-1.31.05-.04,1.99-.93.04-.08,1.29-.89.1-.09.89-1.95.1c.23,1.48-1.28.42-1.07,1.91l-1.27.1-.1.89-.89.1-.1,1.27c-.96-.25-1.66,1.58-2.04,1.96-.26.26-1.16-.26-.95,1.04l-2.28.1-.1.89-.89.1-.04,1.31-1.99.04-.04.93-1.3.07-.2.99-2.81.02-.2.99h-2.98s-.37-1.05-.37-1.05l-3.65.05-.37-1.05-2.98.05-.37-1.05-2.83.03v-1.34s-2.16.03-2.16.03l-.2-.99-1.97-.07-.04-.93-2.29-.09c.23-1.49-1.3-.42-1.07-1.9l-1.98-.05-.04-1.31-.89-.1-.1-.89-2.28-.1c.21-1.29-.69-.77-.95-1.04-.38-.37-1.09-2.21-2.04-1.96l-.1-1.27-.89-.1-.1-.89-1.29-.08-.2-.99-1.8-.03c.21-1.3-.69-.78-.95-1.03s.26-1.15-1.04-.95l-.1-1.27-.89-.1-.1-.89-1.27-.1c-.74-1.45-2.55-3.26-4-4l-.05-1.31-1.31-.05c-.73-1.45-2.55-3.26-4-4l-.1-1.27-.89-.1-.1-.89-1.27-.1c-.36-1.08-1.92-2.63-3-3l-.1-1.27-.89-.1-.1-.89-1.27-.1c.2-1.3-.7-.78-.95-1.04s.26-1.16-1.03-.95l-.11-2.28c-1.3.21-.78-.7-1.03-.95s-1.15.26-.95-1.04l-1.27-.1c.02-.7-1.3-2.02-1.99-1.99l-.1-1.27c-1.46.15-.43-1.12-1.98-1.22l-.03-1.8-.89-.1-.1-.89-1.27-.09-.1-.89-.89-.1-.08-1.29-.99-.2-.03-1.8c-1.3.21-.78-.69-1.03-.95s-1.16.26-.95-1.04l-1.31-.04-.03-1.32-1-.2-.03-1.8c-1.29.21-.78-.69-1.04-.95-.16-.16-.67,0-.83-.17-.26-.26.26-1.16-1.04-.95l-.03-2.13-.99-.2-.04-1.99-1.31-.04-.1-.89-.89-.1-.1-1.27c-1.08-.36-2.63-1.92-3-3l-1.27-.1-.1-.89-.89-.1-.1-2.28c-1.29.21-.77-.69-1.04-.95-.76-.77-2.81-1.73-2.96-3.05l-1.31-.05-.05-1.31c-1.45-.73-3.27-2.55-4-4l-1.31-.04-.03-1.32-1-.2-.03-1.8c-1.25.1-1.65-2.16-2.91-2.07l-.1-1.27-.89-.1-.1-.89-1.27-.1c.25-.96-1.58-1.66-1.96-2.04-.26-.26.26-1.16-1.04-.95l-.1-2.28-.89-.1-.1-.89-1.27-.1c.02-.7-1.3-2.02-1.99-1.99l-.1-1.27c-1.49.21-.42-1.29-1.91-1.07l-.05-1.98-1.31-.04-.1-.89-.89-.1-.1-1.27c-.78-.36-2.27-1.53-2.89-2.12-.4-.38.41-1.42-2.23-.9-.1-1.55-1.39-.53-1.22-1.98l-1.98-.05-.04-1.31-.89-.1-.1-.89-2.28-.1c.21-1.29-.69-.77-.95-1.04-.38-.37-1.09-2.21-2.04-1.96l-.1-1.27-.89-.1-.1-.89-1.27-.1c-.36-1.08-1.92-2.64-3-3l-.08-1.28-.99-.2.03-1.83-1.31-.05c.03-.7-1.3-2.02-1.99-1.99l-.1-1.27c-1.08-.36-2.63-1.92-3-3l-1.27-.1-.1-.89-.89-.1-.1-1.27c-1.08-.36-2.63-1.92-3-3l-1.27-.1c.02-.7-1.3-2.02-1.99-1.99l-.08-1.28-.99-.2-.03-1.8c-1.3.21-.78-.69-1.03-.95s-1.16.26-.95-1.04l-1.31-.05.03-3.16-.99-.2v-1.96s.93-.04.93-.04l.03-1.32h1.34s.05-1.97.05-1.97c1.49.23.42-1.3,1.9-1.07l.09-2.29.93-.04.07-1.97.93-.04.07-1.97.99-.2-.03-2.16h1.34s.04-1.99.04-1.99l.93-.04.07-1.97.99-.2.02-2.14.93-.04.07-1.97.93-.04.04-2.32h1.34s.05-1.97.05-1.97c1.49.23.42-1.3,1.9-1.07l.09-2.29.93-.04.07-1.97.93-.04v-1.81s1.01-.2,1.01-.2l.03-1.32h1.34s.05-1.97.05-1.97c1.49.23.42-1.3,1.9-1.07l.11-2.28c1.3.21.78-.7,1.03-.95s1.15.26.95-1.04l1.27-.1.1-.89.89-.1.09-1.95.93-.04.08-1.29.89-.1.1-.89,1.95-.09.04-.93,1.3-.07.2-.99,1.8-.03.09-.89.89-.1.04-1.31,2.31-.05c-.21-1.29.69-.77.95-1.04.77-.77,1.73-2.8,3.05-2.96l.1-1.27.89-.1.1-.89,1.27-.1c-.25-.96,1.58-1.66,1.96-2.04.26-.26-.26-1.16,1.04-.95l.1-2.28.89-.1.1-.89,1.27-.1c-.2-1.3.7-.78.95-1.04s-.26-1.16,1.03-.95l.11-2.28c1.3.21.78-.7,1.03-.95s1.16.26.95-1.04l1.31-.05.05-2.31c1.29.21.77-.69,1.04-.95.09-.09,1.75-1.08,1.84-1.17.26-.26-.26-1.16,1.04-.95l.03-1.8,1-.2.03-1.32,1.31-.04c-.26-.96,1.58-1.67,1.95-2.05.26-.26-.26-1.16,1.04-.95l.1-2.28.89-.1.1-.89,1.27-.1c.36-1.08,1.92-2.63,3-3l.1-1.27c.7.02,2.02-1.3,1.99-1.99l1.27-.1c-.02-.7,1.3-2.02,1.99-1.99l.1-1.27c.7.02,2.02-1.3,1.99-1.99l1.28-.08.2-.99,1.8-.03.1-.89.89-.1.1-1.27c.7.02,2.02-1.3,1.99-1.99l1.28-.08.04-.93,1.95-.09c-.21-1.3.69-.78.95-1.03s-.26-1.16,1.04-.95l.05-1.31,2.31-.05c-.21-1.29.69-.78.95-1.04.16-.16,0-.67.17-.83.26-.26,1.16.26.95-1.04l1.8-.03.2-1,1.32-.03.04-1.31.89-.09.09-.89,1.95-.1c-.23-1.48,1.28-.42,1.07-1.91l1.28-.08.04-.93,1.99-.04.05-1.31c.3.06,1.76-.99,1.89-1.11.4-.38-.41-1.42,2.23-.9.1-1.55,1.39-.53,1.22-1.98l1.98-.05.04-1.31.89-.1.1-.89,1.29-.08.04-.93,1.95-.09c-.21-1.3.69-.78.95-1.03s-.26-1.16,1.04-.95l.05-1.31,2.31-.05c-.23-1.49,1.3-.42,1.07-1.9l1.96-.09.2-.99h5.99s.2.99.2.99l1.29.08.1.89.89.1.07,6.14-1.05.37.03,3.16-1.31.04-.1.89-.89.1-.1,2.28c-1.29-.21-.77.69-1.04.95-.37.38-2.21,1.09-1.96,2.04l-1.27.1-.1.89-.89.1-.1,1.27c-1.45.74-3.26,2.55-4,4l-1.31.05-.05,1.31c-1.45.73-3.26,2.55-4,4l-1.27.1-.1.89-.89.1-.1,2.28c-.25.07-.72-.06-.87.11-.77.8-1.71,2.79-3.04,2.97l-.05,1.31-1.31.04-.09.89-.89.09-.03,1.8c-1.55.1-.53,1.37-1.98,1.22l-.1,1.27-.89.1-.1.89-1.31.04.03,1.83c-1.55.11-.53,1.37-1.98,1.22l-.08,1.28-.93.04-.09,1.95-.89.1-.1.89-1.27.09-.1.89-.89.1-.1,2.28c-1.29-.21-.78.69-1.04.95-.16.16-.67,0-.83.17-.26.26.26,1.16-1.04.95l-.03,1.8-1,.2-.03,1.32h-1.34s-.05,1.97-.05,1.97c-1.25-.1-1.65,2.16-2.91,2.07l-.1,1.27-.89.1-.1.89-1.27.1c-.36,1.08-1.92,2.63-3,3l-.1,1.27c-.7-.02-2.02,1.3-1.99,1.99l-1.27.1c.02.7-1.3,2.02-1.99,1.99l-.1,1.27c-.7-.02-2.02,1.3-1.99,1.99l-1.27.1c.02.7-1.3,2.02-1.99,1.99l-.08,1.28-.99.2-.03,1.8c-1.3-.21-.78.69-1.03.95s-1.16-.26-.95,1.04l-1.31.04-.03,1.32-1,.2-.03,1.8c-1.49-.23-.42,1.3-1.9,1.07l-.09,1.96-.93.04-.04,2.32h-1.34s.03,4.16.03,4.16l-1.05.37v4.99s1.05.37,1.05.37l-.03,2.83,1.31.04.1.89.89.1.1,2.28c1.29-.21.77.69,1.04.95.37.38,2.21,1.09,1.95,2.05l1.31.05.05,1.31c1.58.29,2.34,2.78,3.92,3.07l.09,1.96.99.2-.03,2.16,1.31.04.1.89.89.09.09,1.96.99.2.02,2.14.93.04.07,1.97.99.2-.03,2.16h1.34s.04,1.99.04,1.99l.93.04.07,1.97.99.2.03,2.13c1.49-.23.42,1.3,1.9,1.07l.09,1.96.93.04.04,2.32h1.34s-.03,1.82-.03,1.82l.99.2.07,1.97.93.04.02,2.14.99.2.09,1.96.89.09.1.89,1.31.04.04,2.32.93.04.07,1.97.93.04.02,2.14.99.2.07,1.97.93.04.08,1.96.93.04.03,1.32h1.34s.04,1.98.04,1.98l.93.04.08,1.96.93.04.07,1.3.93.04.09,1.95.89.1.1.89,1.27.09.1.89.89.1.1,2.28c1.29-.21.77.69,1.04.95.37.38,2.21,1.09,1.96,2.04l1.27.1.1.89.89.1.09,1.27.89.1.1.89,1.95.1c-.23,1.49,1.3.42,1.07,1.9l2.13.03.2.99,1.99.04v1.34s3.32.04,3.32.04l.04.93,1.97.07.04.93,1.97.07.04.93,2.29.09.1.89.89.1.1,1.27c.3-.05,1.75.99,1.89,1.11.4.38-.41,1.42,2.23.9.11,1.38.84.84,1.1,1.11s-.26,1.15,1.04.95l.1,1.27.89.1.1.89,2.29.09.04.93,1.97.07.04.93,1.97.07.2.99,2.16-.03v1.34s2.83-.03,2.83-.03l.37,1.05,2.98-.05.37,1.05,6.99-.05.37,1.05,9.34-.05.37,1.05h5.66l.37-1.05,14.69.05.37-1.05,9.5-.02.04-.93h1.81s.2-1.01.2-1.01l1.32-.03.04-1.31.89-.09.09-.89,1.8-.03c.1-1.55,1.37-.53,1.22-1.98l1.27-.1.1-.89.89-.1.04-1.31,1.98-.05c-.21-1.29.69-.78.95-1.04.16-.16,0-.67.17-.83.26-.26,1.16.26.95-1.04l2.31-.05.05-2.31.89-.09.25-.97,1.8-.02.04-.93,1.28-.08c-.03-.69,1.3-2.03,1.99-1.99l.05-1.31,1.99-.04.04-.93,1.28-.08c-.22-1.49,1.3-.42,1.07-1.91l1.95-.1.09-.89.89-.1.04-1.31,2.31-.05c-.21-1.29.69-.78.95-1.04.16-.16,0-.67.17-.83.26-.26,1.16.26.95-1.04l1.95-.09.04-.93,1.32-.03v-1.34s1.97-.05,1.97-.05c-.23-1.49,1.3-.42,1.07-1.9l1.95-.09.04-.93,1.3-.07.2-.99,1.8-.03.09-.89.89-.1.04-1.31,2.32-.04.04-.93,1.96-.09c-.21-1.29.69-.78.95-1.04.16-.16,0-.67.17-.83.26-.26,1.16.26.95-1.04l2.31-.05.05-1.31c1.45-.73,3.27-2.55,4-4l1.31-.05.05-1.31c1.95-.67,2.98-3.41,4.93-4.08l.04-1.31h1.34s.05-1.97.05-1.97c1.25.1,1.66-2.17,2.91-2.07l.05-1.31,2.16.03.2-.99,1.97-.07.04-.93,1.96-.08.04-.93,1.3-.07.04-.93,1.96-.08.2-.99,1.83.03v-1.34s2.31-.05,2.31-.05c-.23-1.49,1.3-.42,1.07-1.9l1.96-.09.2-.99,2.14-.02.2-.99,1.83.03v-1.34s1.99-.04,1.99-.04l.2-.99,2.14-.02.04-.93,1.97-.07.04-.93,1.97-.07.04-.93h2.3s.02.97.02.97h6.36Z"/>
      <path class="cls-1" d="M139.46,137.07l.04.93,3.14.02.2.99,1.97.07.04.93h1.81s.2,1.01.2,1.01l1.32.03.04,1.31.89.09.09.89,1.8.03c.1,1.55,1.38.53,1.22,1.99l1.31.05.05,2.31c1.29-.21.78.69,1.04.95.16.16.67,0,.83.17.26.26-.26,1.16,1.04.95l.09,1.96.99.2.02,2.14.99.2-.03,2.83h1.34s-.03,5.17-.03,5.17l1.05.37v7.33l-1.05.37.03,5.17h-1.34s.03,1.82.03,1.82l-.99.2-.08,1.96-.93.04-.08,1.28c-1.08.36-2.64,1.92-3,3l-1.28.08-.2.99-1.83-.03-.04,1.31-.89.1-.1.89-2.28.1c.23,1.49-1.3.42-1.07,1.9l-1.96.09-.2.99-1.83-.03v1.34s-3.16-.03-3.16-.03l-.37,1.05-3.98-.05-.37,1.05h-11.34s-.2-.99-.2-.99l-1.96-.09-.1-.89-.89-.1-.09-1.27-.89-.1-.1-.89-1.27-.09-.1-.89-.89-.1-.09-1.95-.93-.04-.07-1.3-.93-.04-.08-1.96-.93-.04-.04-1.99h-1.34s-.04-3.32-.04-3.32l-.99-.2.05-3.98-1.05-.37v-10.34s1.05-.37,1.05-.37l-.05-9,1.05-.37-.03-3.16h1.34s.04-1.99.04-1.99l.99-.2.03-2.13c1.29.21.77-.69,1.04-.95.37-.38,2.21-1.09,1.95-2.05l1.31-.05.04-1.31.89-.09.09-.89,1.96-.09.04-.93,3.14-.02.2-.99,1.97-.08.2-.99,12.51.06Z"/>
      <path class="cls-1" d="M170.87,0s1.4,40.64-8.45,52.33l-41.04,14.13s-38.98,59.45-32.16,57.5,62.86-29.72,75.52-27.29c12.67,2.44,1.95,104.76.97,134.97h49.21s-12.18-92.58-11.21-102.81c.97-10.23,2.92-23.39,2.92-23.39,0,0,5.85-4.87,8.28-4.39s56.03,4.39,56.03,4.39l-29.72-34.6s-48.73-13.16-43.37-21.93l-2.92-29.24-10.18-12.56s-10.69-4.99-13.9-7.13Z"/>
    </g>
  </g>
</svg>